<?xml version="1.0" encoding="UTF-8"?><svg id="Icons" xmlns="http://www.w3.org/2000/svg" viewBox="0 0 221.9 53.56"><defs><style>.cls-1{fill:#fee602;}.cls-2{fill:#231f20;}</style></defs><rect class="cls-1" x=".74" y="6.05" width="217.72" height="41.46" rx="5" ry="5" transform="translate(1.75 -6.37) rotate(3.35)"/><path class="cls-2" d="M24.12,18.39v4.23h12.69v-4.23c0-1.25-.02-1.93-.06-2.05-.12-.85-.5-1.27-1.15-1.27-.28,0-.52.02-.73.06h-.54c-1.77,0-2.66-1.23-2.66-3.69,0-1.33.37-2.4,1.12-3.2.74-.8,1.72-1.21,2.93-1.21.81,0,2.01.1,3.63.3,1.61.2,2.82.3,3.63.3,1.05,0,2.36-.08,3.93-.24,2.74-.28,4.09-.42,4.05-.42,1.29,0,2.33.41,3.11,1.24.79.83,1.18,1.9,1.18,3.23,0,1.13-.31,2.08-.94,2.84-.62.77-1.4,1.15-2.33,1.15-.36,0-.86-.07-1.48-.21-.62-.14-1.1-.21-1.42-.21-.81,0-1.33.5-1.57,1.51-.08.4-.12,1.25-.12,2.54v16.74c0,2.74.54,4.11,1.63,4.11.32,0,.81-.07,1.45-.21.64-.14,1.13-.21,1.45-.21.93,0,1.71.38,2.36,1.15.64.77.97,1.71.97,2.84,0,1.33-.39,2.41-1.18,3.23-.79.83-1.82,1.24-3.11,1.24h-.24c-.08-.04-.16-.06-.24-.06-.81,0-2.01-.1-3.63-.3-1.61-.2-2.84-.3-3.69-.3-1.57,0-2.9.08-3.99.24-1.65.24-2.82.36-3.5.36-1.17,0-2.13-.41-2.87-1.24-.75-.83-1.12-1.9-1.12-3.23,0-2.46.89-3.69,2.66-3.69.24,0,.42.02.54.06h.42c.16.04.26.06.3.06.64,0,1.03-.44,1.15-1.33.04-.44.06-1.13.06-2.05v-5.98h-12.69v8.1c.12.85.52,1.27,1.21,1.27.04,0,.14-.02.3-.06h.36c.12-.04.3-.06.54-.06,1.77,0,2.66,1.23,2.66,3.69,0,1.33-.37,2.41-1.12,3.23-.75.83-1.7,1.24-2.87,1.24-.73,0-1.82-.1-3.29-.3-1.47-.2-2.59-.3-3.35-.3-1.73,0-3.24.08-4.53.24-1.93.24-3.28.36-4.05.36-1.29,0-2.33-.4-3.11-1.21s-1.18-1.87-1.18-3.2c0-1.13.32-2.07.97-2.84.64-.76,1.43-1.15,2.36-1.15.32,0,.79.07,1.42.21.62.14,1.1.21,1.42.21,1.09,0,1.63-1.37,1.63-4.11v-16.74c0-2.7-.54-4.05-1.63-4.05-.32,0-.8.07-1.42.21-.62.14-1.12.21-1.48.21-.93,0-1.7-.38-2.33-1.15-.62-.76-.94-1.71-.94-2.84,0-1.33.4-2.4,1.21-3.2.81-.8,1.85-1.21,3.14-1.21.4,0,1.69.12,3.87.36,1.45.16,2.9.24,4.35.24,1.25,0,2.42-.08,3.5-.24,1.61-.24,2.76-.36,3.44-.36,1.21,0,2.18.41,2.9,1.24.73.83,1.09,1.9,1.09,3.23,0,2.42-.89,3.62-2.66,3.62h-.54c-.16-.04-.38-.06-.66-.06-.69,0-1.09.42-1.21,1.27v2.05Z"/><path class="cls-2" d="M87.45,29.87c0,1.69-.21,2.82-.63,3.38-.42.56-1.26.85-2.51.85h-14.74c-.73,0-1.18.07-1.36.21-.18.14-.27.49-.27,1.06,0,1.69.54,3.1,1.63,4.23,1.09,1.13,2.46,1.69,4.11,1.69s3.42-.93,5.2-2.78c1.21-1.29,2.54-1.93,3.99-1.93,1.21,0,2.19.34,2.93,1.03.75.69,1.12,1.55,1.12,2.6,0,2.34-1.28,4.32-3.84,5.95-2.56,1.63-5.67,2.45-9.34,2.45-4.79,0-8.62-1.45-11.48-4.35-2.86-2.9-4.29-6.77-4.29-11.6s1.42-8.81,4.26-11.81,6.56-4.5,11.15-4.5c4.27,0,7.68,1.23,10.24,3.69,2.56,2.46,3.84,5.74,3.84,9.85ZM68.23,26.85c0,.24.06.44.18.6.12.16.54.24,1.27.24h6.77c.6,0,.98-.07,1.12-.21s.21-.39.21-.76c0-1.05-.46-1.96-1.39-2.75-.93-.79-2.02-1.18-3.26-1.18-1.61,0-2.92.63-3.93,1.87-.64.81-.97,1.53-.97,2.17Z"/><path class="cls-2" d="M103.28,6.91c1.13,0,1.69.75,1.69,2.24v28.58c0,2.01.4,3.02,1.21,3.02.32,0,.6-.04.85-.12.24-.08.56-.12.97-.12,1.77,0,2.66,1.05,2.66,3.14,0,2.78-1.21,4.17-3.63,4.17-.04,0-1.57-.12-4.59-.36-.93-.08-1.91-.12-2.96-.12-.89,0-1.83.06-2.84.18-1.69.2-2.76.3-3.2.3-1.09,0-1.97-.37-2.66-1.12-.69-.75-1.03-1.72-1.03-2.93,0-2.26.99-3.38,2.96-3.38.24,0,.57.07,1,.21.42.14.76.21,1,.21.68,0,1.03-1.13,1.03-3.38v-20.12c0-2.26-.34-3.38-1.03-3.38-.28,0-.65.08-1.09.24-.24.08-.56.12-.97.12-1.93,0-2.9-1.11-2.9-3.32,0-1.25.34-2.24,1.03-2.96.68-.73,1.61-1.09,2.78-1.09.32,0,1.01.06,2.05.18,1.37.16,2.4.24,3.08.24.93,0,1.73-.08,2.42-.24.93-.12,1.65-.18,2.18-.18Z"/><path class="cls-2" d="M125.27,6.91c1.13,0,1.69.75,1.69,2.24v28.58c0,2.01.4,3.02,1.21,3.02.32,0,.6-.04.85-.12.24-.08.56-.12.97-.12,1.77,0,2.66,1.05,2.66,3.14,0,2.78-1.21,4.17-3.63,4.17-.04,0-1.57-.12-4.59-.36-.93-.08-1.91-.12-2.96-.12-.89,0-1.83.06-2.84.18-1.69.2-2.76.3-3.2.3-1.09,0-1.97-.37-2.66-1.12-.69-.75-1.03-1.72-1.03-2.93,0-2.26.99-3.38,2.96-3.38.24,0,.57.07,1,.21.42.14.75.21,1,.21.68,0,1.03-1.13,1.03-3.38v-20.12c0-2.26-.34-3.38-1.03-3.38-.28,0-.64.08-1.09.24-.24.08-.56.12-.97.12-1.93,0-2.9-1.11-2.9-3.32,0-1.25.34-2.24,1.03-2.96.68-.73,1.61-1.09,2.78-1.09.32,0,1.01.06,2.05.18,1.37.16,2.4.24,3.08.24.93,0,1.73-.08,2.42-.24.93-.12,1.65-.18,2.17-.18Z"/><path class="cls-2" d="M150.59,48.6c-5,0-8.85-1.41-11.57-4.23-2.72-2.82-4.08-6.79-4.08-11.9s1.35-9.03,4.05-11.87,6.49-4.26,11.36-4.26,8.57,1.41,11.33,4.23c2.76,2.82,4.14,6.69,4.14,11.6,0,5.16-1.34,9.18-4.02,12.09-2.68,2.9-6.42,4.35-11.21,4.35ZM150.35,23.77c-1.77,0-3.17.78-4.2,2.33-1.03,1.55-1.54,3.68-1.54,6.38s.51,4.87,1.54,6.41c1.03,1.53,2.47,2.3,4.32,2.3,3.75,0,5.62-2.9,5.62-8.7s-1.91-8.7-5.74-8.7Z"/><path class="cls-2" d="M181.71,26.49l2.6,12.93,3.87-17.83c.4-1.77,1-2.95,1.78-3.54.79-.58,2.23-.88,4.32-.88,2.38,0,3.94.29,4.68.88.74.58,1.34,2,1.78,4.26l3.44,17.1,3.2-13.54c.08-.32.12-.6.12-.85,0-.6-.48-.91-1.45-.91-1.97-.04-2.96-1.17-2.96-3.38,0-2.38,1.15-3.57,3.45-3.57.68,0,1.69.08,3.02.24,1.33.16,2.34.24,3.02.24.64,0,1.61-.08,2.9-.24,1.29-.16,2.25-.24,2.9-.24,1.05,0,1.89.34,2.54,1.03.64.69.97,1.59.97,2.72,0,1.05-.26,1.9-.79,2.57-.52.67-1.19,1-1.99,1-.28,0-.48-.02-.6-.06-.57-.08-.87-.12-.91-.12-.52,0-.99.73-1.39,2.18,0,.04-.18.6-.54,1.69l-5.01,15.71c-.81,2.58-1.87,3.87-3.2,3.87-.4,0-1.01-.06-1.81-.18s-1.41-.18-1.81-.18-.99.06-1.75.18-1.33.18-1.69.18c-1.49,0-2.54-1.57-3.14-4.71l-2.96-15.89-3.5,15.41c-.52,2.3-.96,3.74-1.3,4.32-.34.58-.94.88-1.78.88-.44,0-1.05-.06-1.81-.18-.77-.12-1.43-.18-1.99-.18-.44,0-1.09.06-1.93.18s-1.49.18-1.93.18c-1.25,0-2.16-1.03-2.72-3.08l-4.83-18.37c-.28-1.25-.83-1.87-1.63-1.87-.16,0-.41.03-.75.09-.34.06-.59.09-.75.09-1.69,0-2.54-1.17-2.54-3.5,0-2.62,1.19-3.93,3.57-3.93.64,0,1.6.08,2.87.24,1.27.16,2.23.24,2.87.24.68,0,1.73-.08,3.14-.24,1.41-.16,2.46-.24,3.14-.24,2.17,0,3.26,1.21,3.26,3.63,0,2.05-.79,3.14-2.36,3.26-.77.08-1.24.17-1.42.27-.18.1-.27.35-.27.76v.54c0,.16.04.44.12.85Z"/></svg>