<?xml version="1.0" encoding="UTF-8"?>
<svg id="Layer_1" data-name="Layer 1" xmlns="http://www.w3.org/2000/svg" xmlns:xlink="http://www.w3.org/1999/xlink" viewBox="0 0 198 197.9999614476">
  <defs>
    <style>
      .cls-1 {
        fill: url(#radial-gradient);
      }
    </style>
    <radialGradient id="radial-gradient" cx="-701.3840289999" cy="130.9359750258" fx="-701.3840289999" fy="130.9359750258" r="98.9999903619" gradientTransform="translate(800.3840289999 -31.935994302)" gradientUnits="userSpaceOnUse">
      <stop offset="0" stop-color="#fff"/>
      <stop offset=".0317159829" stop-color="#f8f7fa"/>
      <stop offset=".2054664692" stop-color="#d5d2e3"/>
      <stop offset=".3793421862" stop-color="#bbb5d1"/>
      <stop offset=".5512821831" stop-color="#a8a0c5"/>
      <stop offset=".7205093076" stop-color="#9c94bd"/>
      <stop offset=".8838059458" stop-color="#9990bb"/>
    </radialGradient>
  </defs>
  <path class="cls-1" d="M172.5506461329,54.9204105269l-.0001542097-.0000771048c-7.3267349695-4.2300853316-15.0487473257-6.4010085447-22.6540995363-6.8167556424-.4157515557-7.6053519669-2.5866792951-15.3273630506-6.8167689213-22.6540955406l-.0001156573-.0001542097c-19.5908861831-33.932448856-68.5681924357-33.9324345018-88.1590972814.0000258377l-.0000771048.0001542097c-4.2300853316,7.3267349695-6.4010085447,15.0487473257-6.8167556424,22.6540995363-7.6053519669.4157515557-15.3273630506,2.5866792951-22.6540955406,6.8167689213l-.0001542097.0000771049c-33.932448856,19.5909247355-33.9324345018,68.5681924357.0000258377,88.1590972814l.0001542097.0001156572c7.3267349695,4.2300853316,15.0487473257,6.4010085447,22.6540995363,6.8167556424.4157515557,7.6053519669,2.5866792951,15.3273630506,6.8167689213,22.6540955406l.0000771049.0001156572c19.5909247355,33.932448856,68.5682309882,33.9324345017,88.1590972814-.0000258377l.0001156572-.0001156573c4.2300853316-7.3267349695,6.4010085447-15.0487473257,6.8167556424-22.6540995363,7.6053519669-.4157515557,15.3273630506-2.5866792951,22.6540955406-6.8167689213l.0001542097-.0001156573c33.932448856-19.5909247355,33.9324345018-68.5681924357-.0000258377-88.1590972814ZM99.000010996,136.5189093792c-.0000050751-17.3163989545-21.4094050143-37.5189031046-39.7602811278-37.5188977263,18.3508761135-.0000053783,39.7602642108-20.2025220777,39.7602591357-37.5189595846.0000050751,17.3164375069,21.4093668062,38.6939038445,39.7602817673,39.7010034051-18.3509149611-1.0070995606-39.7602648503,18.0204549513-39.7602597752,35.3368539058Z"/>
</svg>