<?xml version="1.0" encoding="UTF-8"?><svg id="Icons" xmlns="http://www.w3.org/2000/svg" viewBox="0 0 939.91 261.42"><defs><style>.cls-1{font-family:AmericanTypewriter-Bold, 'American Typewriter';font-size:28.19px;font-weight:700;}.cls-1,.cls-2{fill:#2d2d2d;}.cls-3{fill:#cfbedd;}.cls-4{fill:#fff;}.cls-5{letter-spacing:-.05em;}.cls-6{fill:#2d2d2d;}.cls-7{letter-spacing:0em;}</style></defs><rect class="cls-3" x="339.25" y="-339.25" width="261.42" height="939.91" rx="36.17" ry="36.17" transform="translate(600.67 -339.25) rotate(90)"/><path class="cls-4" d="M383.98,112.72h11.21c1,0,1.62-.11,1.85-.35s.35-.65.35-1.25c0-1.73-.77-3.25-2.3-4.55-1.54-1.3-3.34-1.95-5.4-1.95-2.67,0-4.84,1.04-6.51,3.1-1.07,1.33-1.6,2.54-1.6,3.6,0,.4.1.74.3,1,.2.27.9.4,2.1.4Z"/><path class="cls-4" d="M517.59,106.21c-2.94,0-5.25,1.28-6.96,3.85-1.7,2.57-2.55,6.09-2.55,10.56s.85,8.07,2.55,10.61c1.7,2.54,4.09,3.8,7.16,3.8,6.2,0,9.31-4.8,9.31-14.41s-3.17-14.41-9.51-14.41Z"/><path class="cls-4" d="M325.44,132.63c.4,0,.7.03.9.1h.7c.27.07.43.1.5.1,1.07,0,1.7-.73,1.9-2.2.07-.73.1-1.87.1-3.4v-9.91h-21.02v13.41c.2,1.4.87,2.1,2,2.1.07,0,.23-.03.5-.1h.6c.2-.07.5-.1.9-.1,2.69,0,4.13,1.73,4.36,5.15l4.18.25c.17-3.58,1.61-5.4,4.37-5.4Z"/><path class="cls-4" d="M628.98,107.11c-.87,0-1.64,1.2-2.3,3.6,0,.07-.3,1-.9,2.8l-8.31,26.02c-1.34,4.27-3.1,6.41-5.3,6.41-.67,0-1.67-.1-3-.3-1.34-.2-2.34-.3-3-.3s-1.64.1-2.9.3c-1.27.2-2.2.3-2.8.3-2.47,0-4.2-2.6-5.2-7.81l-4.9-26.32-5.8,25.52c-.87,3.8-1.59,6.19-2.15,7.16-.57.97-1.55,1.45-2.95,1.45-.74,0-1.74-.1-3-.3-1.27-.2-2.37-.3-3.3-.3-.73,0-1.8.1-3.2.3-1.4.2-2.47.3-3.2.3-2.07,0-3.57-1.7-4.5-5.1l-8.01-30.43c-.47-2.07-1.37-3.1-2.7-3.1-.27,0-.68.05-1.25.15-.57.1-.99.15-1.25.15-2.8,0-4.2-1.93-4.2-5.8,0-4.34,1.97-6.51,5.91-6.51,1.07,0,2.65.13,4.75.4,2.1.27,3.69.4,4.75.4,1.13,0,2.87-.13,5.2-.4,2.33-.27,4.07-.4,5.2-.4,3.6,0,5.4,2,5.4,6.01,0,3.4-1.3,5.2-3.9,5.4-1.27.13-2.05.28-2.35.45-.3.17-.45.59-.45,1.25v.9c0,.27.07.73.2,1.4l4.3,21.42,6.41-29.52c.67-2.94,1.65-4.89,2.95-5.86,1.3-.97,3.69-1.45,7.16-1.45,3.94,0,6.52.49,7.76,1.45,1.23.97,2.22,3.32,2.95,7.06l5.7,28.32,5.3-22.42c.13-.53.2-1,.2-1.4,0-1-.8-1.5-2.4-1.5-3.27-.07-4.9-1.93-4.9-5.6,0-3.94,1.9-5.91,5.7-5.91,1.13,0,2.8.13,5,.4,2.2.27,3.87.4,5,.4,1.07,0,2.67-.13,4.8-.4,2.13-.27,3.74-.4,4.8-.4.47,0,.91.05,1.33.13.09-4.41-3.33-8.19-7.77-8.45l-147.05-8.62c1.38.3,2.07,1.5,2.07,3.62v47.34c0,3.34.67,5,2,5,.53,0,1-.07,1.4-.2.4-.13.93-.2,1.6-.2,2.93,0,4.4,1.74,4.4,5.2,0,4.6-2,6.9-6.01,6.9-.07,0-2.6-.2-7.61-.6-1.54-.13-3.17-.2-4.9-.2-1.47,0-3.04.1-4.7.3-2.8.33-4.57.5-5.3.5-1.8,0-3.27-.62-4.4-1.85-1.14-1.23-1.7-2.85-1.7-4.85,0-3.74,1.63-5.61,4.9-5.61.4,0,.95.12,1.65.35.7.23,1.25.35,1.65.35,1.13,0,1.7-1.87,1.7-5.6v-33.33c0-3.74-.57-5.6-1.7-5.6-.47,0-1.07.13-1.8.4-.4.13-.93.2-1.6.2-3.2,0-4.8-1.83-4.8-5.5,0-2.07.57-3.7,1.7-4.9,1.13-1.2,2.67-1.8,4.6-1.8.53,0,1.67.1,3.4.3,2.27.27,3.97.4,5.1.4,1.53,0,2.87-.13,4-.4,1.29-.17,2.34-.26,3.16-.29l-195.23-11.44c-4.55-.27-8.49,3.24-8.75,7.78l-3.05,52.02c-.27,4.55,3.24,8.49,7.78,8.75l2.35.14c.24-.5.52-.98.88-1.42,1.07-1.27,2.37-1.9,3.9-1.9.53,0,1.32.12,2.35.35,1.03.23,1.82.35,2.35.35,1.8,0,2.7-2.27,2.7-6.8v-27.72c0-4.47-.9-6.71-2.7-6.71-.53,0-1.32.12-2.35.35-1.04.23-1.85.35-2.45.35-1.54,0-2.82-.63-3.85-1.9-1.04-1.27-1.55-2.84-1.55-4.7,0-2.2.67-3.97,2-5.31,1.33-1.33,3.07-2,5.2-2,.67,0,2.8.2,6.41.6,2.4.27,4.8.4,7.21.4,2.07,0,4-.13,5.8-.4,2.67-.4,4.57-.6,5.7-.6,2,0,3.6.68,4.8,2.05,1.2,1.37,1.8,3.15,1.8,5.36,0,4-1.47,6-4.4,6h-.9c-.27-.06-.63-.1-1.1-.1-1.14,0-1.8.7-2,2.1v10.41h21.02v-7.01c0-2.07-.03-3.2-.1-3.4-.2-1.4-.83-2.1-1.9-2.1-.47,0-.87.04-1.2.1h-.9c-2.94,0-4.4-2.03-4.4-6.1,0-2.2.62-3.97,1.85-5.31,1.23-1.33,2.85-2,4.85-2,1.33,0,3.34.17,6,.5,2.67.33,4.67.5,6,.5,1.73,0,3.9-.13,6.51-.4,4.54-.47,6.77-.7,6.71-.7,2.14,0,3.85.68,5.15,2.05,1.3,1.37,1.95,3.15,1.95,5.36,0,1.87-.52,3.44-1.55,4.7-1.04,1.27-2.32,1.9-3.85,1.9-.6,0-1.42-.12-2.45-.35-1.04-.23-1.82-.35-2.35-.35-1.34,0-2.2.84-2.6,2.5-.13.67-.2,2.07-.2,4.2v27.72c0,4.54.9,6.8,2.7,6.8.53,0,1.33-.11,2.4-.35,1.07-.23,1.87-.35,2.4-.35,1.53,0,2.84.64,3.9,1.9,1.07,1.27,1.6,2.84,1.6,4.7,0,.52-.04,1-.11,1.47l12.73.75c-.34-.3-.68-.59-1.01-.92-4.74-4.81-7.11-11.21-7.11-19.22s2.35-14.59,7.06-19.56c4.7-4.97,10.86-7.46,18.46-7.46,7.07,0,12.73,2.04,16.96,6.1,4.24,4.07,6.36,9.51,6.36,16.31,0,2.8-.35,4.67-1.05,5.6-.7.93-2.09,1.4-4.15,1.4h-24.42c-1.2,0-1.95.12-2.25.35-.3.23-.45.82-.45,1.75,0,2.8.9,5.14,2.7,7.01,1.8,1.87,4.07,2.8,6.81,2.8s5.67-1.53,8.61-4.6c2-2.13,4.2-3.2,6.6-3.2,2,0,3.62.57,4.85,1.7,1.23,1.14,1.85,2.57,1.85,4.3,0,3.75-2.01,6.95-5.99,9.61l12.06.71c-.9-1.17-1.37-2.63-1.37-4.41,0-3.74,1.63-5.61,4.9-5.61.4,0,.95.12,1.65.35.7.23,1.25.35,1.65.35,1.13,0,1.7-1.87,1.7-5.6v-33.33c0-3.74-.57-5.6-1.7-5.6-.47,0-1.07.13-1.8.4-.4.13-.93.2-1.6.2-3.2,0-4.8-1.83-4.8-5.5,0-2.07.57-3.7,1.7-4.9,1.13-1.2,2.67-1.8,4.6-1.8.53,0,1.67.1,3.4.3,2.27.27,3.97.4,5.1.4,1.53,0,2.87-.13,4-.4,1.53-.2,2.74-.3,3.6-.3,1.87,0,2.8,1.24,2.8,3.7v47.34c0,3.34.67,5,2,5,.53,0,1-.07,1.4-.2.4-.13.93-.2,1.6-.2,2.93,0,4.4,1.74,4.4,5.2s-1.07,5.46-3.18,6.37l171.17,10.03c4.55.27,8.49-3.24,8.75-7.78l2.37-40.37c-.19-.02-.35-.04-.46-.08-.94-.13-1.44-.2-1.5-.2ZM536.55,140.14c-4.44,4.8-10.63,7.21-18.56,7.21s-14.66-2.34-19.17-7.01c-4.5-4.67-6.76-11.24-6.76-19.71s2.23-14.96,6.71-19.67c4.47-4.7,10.74-7.06,18.81-7.06s14.19,2.34,18.77,7.01c4.57,4.67,6.86,11.08,6.86,19.22,0,8.54-2.22,15.21-6.66,20.02Z"/><path class="cls-2" d="M354.56,132.23c-.53,0-1.34.12-2.4.35-1.07.23-1.87.35-2.4.35-1.8,0-2.7-2.27-2.7-6.8v-27.72c0-2.14.07-3.54.2-4.2.4-1.67,1.27-2.5,2.6-2.5.53,0,1.32.12,2.35.35,1.03.23,1.85.35,2.45.35,1.53,0,2.82-.63,3.85-1.9,1.03-1.27,1.55-2.84,1.55-4.7,0-2.2-.65-3.99-1.95-5.36-1.3-1.37-3.02-2.05-5.15-2.05.07,0-2.17.23-6.71.7-2.6.27-4.77.4-6.51.4-1.34,0-3.34-.17-6-.5-2.67-.33-4.67-.5-6-.5-2,0-3.62.67-4.85,2-1.24,1.34-1.85,3.1-1.85,5.31,0,4.07,1.47,6.1,4.4,6.1h.9c.33-.06.73-.1,1.2-.1,1.07,0,1.7.7,1.9,2.1.07.2.1,1.33.1,3.4v7.01h-21.02v-10.41c.2-1.4.87-2.1,2-2.1.47,0,.83.04,1.1.1h.9c2.94,0,4.4-2,4.4-6,0-2.2-.6-3.99-1.8-5.36-1.2-1.37-2.8-2.05-4.8-2.05-1.14,0-3.04.2-5.7.6-1.8.27-3.74.4-5.8.4-2.4,0-4.8-.13-7.21-.4-3.6-.4-5.74-.6-6.41-.6-2.14,0-3.87.67-5.2,2-1.34,1.34-2,3.1-2,5.31,0,1.87.52,3.44,1.55,4.7,1.03,1.27,2.32,1.9,3.85,1.9.6,0,1.42-.12,2.45-.35,1.03-.23,1.82-.35,2.35-.35,1.8,0,2.7,2.24,2.7,6.71v27.72c0,4.54-.9,6.8-2.7,6.8-.53,0-1.32-.11-2.35-.35-1.04-.23-1.82-.35-2.35-.35-1.54,0-2.84.64-3.9,1.9-.36.43-.64.91-.88,1.42-.46.97-.72,2.06-.72,3.29,0,2.2.65,3.97,1.95,5.31,1.3,1.33,3.02,2,5.15,2,1.27,0,3.5-.2,6.71-.6,2.14-.27,4.64-.4,7.51-.4,1.27,0,3.12.17,5.55.5,2.44.33,4.25.5,5.45.5,1.93,0,3.52-.68,4.75-2.05,1.23-1.37,1.85-3.15,1.85-5.36,0-.34-.03-.64-.05-.95-.22-3.42-1.67-5.15-4.36-5.15-.4,0-.7.03-.9.1h-.6c-.27.07-.44.1-.5.1-1.14,0-1.8-.7-2-2.1v-13.41h21.02v9.91c0,1.53-.03,2.67-.1,3.4-.2,1.47-.83,2.2-1.9,2.2-.07,0-.23-.03-.5-.1h-.7c-.2-.07-.5-.1-.9-.1-2.76,0-4.2,1.82-4.37,5.4-.01.24-.03.45-.03.71,0,2.2.62,3.99,1.85,5.36,1.23,1.37,2.82,2.05,4.75,2.05,1.13,0,3.07-.2,5.8-.6,1.8-.27,4-.4,6.61-.4,1.4,0,3.44.17,6.11.5,2.67.33,4.67.5,6,.5.13,0,.27.03.4.1h.4c2.14,0,3.85-.68,5.15-2.05,1-1.05,1.6-2.34,1.84-3.88.07-.47.11-.96.11-1.47,0-1.87-.54-3.44-1.6-4.7-1.07-1.27-2.37-1.9-3.9-1.9Z"/><path class="cls-2" d="M405.8,127.43c-2.4,0-4.6,1.07-6.6,3.2-2.94,3.07-5.8,4.6-8.61,4.6s-5-.93-6.81-2.8c-1.8-1.87-2.7-4.2-2.7-7.01,0-.93.15-1.52.45-1.75.3-.23,1.05-.35,2.25-.35h24.42c2.07,0,3.45-.47,4.15-1.4.7-.93,1.05-2.8,1.05-5.6,0-6.81-2.12-12.24-6.36-16.31-4.24-4.07-9.89-6.1-16.96-6.1-7.61,0-13.76,2.49-18.46,7.46s-7.06,11.49-7.06,19.56,2.37,14.41,7.11,19.22c.32.33.67.61,1.01.92,4.62,4.17,10.61,6.29,18.01,6.29,6.07,0,11.22-1.35,15.46-4.05.13-.08.24-.17.36-.25,3.98-2.66,5.99-5.85,5.99-9.61,0-1.73-.62-3.17-1.85-4.3-1.23-1.13-2.85-1.7-4.85-1.7ZM383.18,107.71c1.67-2.07,3.84-3.1,6.51-3.1,2.07,0,3.87.65,5.4,1.95,1.53,1.3,2.3,2.82,2.3,4.55,0,.6-.12,1.02-.35,1.25s-.85.35-1.85.35h-11.21c-1.2,0-1.9-.13-2.1-.4-.2-.27-.3-.6-.3-1,0-1.07.53-2.27,1.6-3.6Z"/><path class="cls-2" d="M447.43,133.93c-.67,0-1.2.07-1.6.2-.4.13-.87.2-1.4.2-1.34,0-2-1.67-2-5v-47.34c0-2.47-.93-3.7-2.8-3.7-.87,0-2.07.1-3.6.3-1.14.27-2.47.4-4,.4-1.14,0-2.84-.13-5.1-.4-1.74-.2-2.87-.3-3.4-.3-1.94,0-3.47.6-4.6,1.8-1.14,1.2-1.7,2.84-1.7,4.9,0,3.67,1.6,5.5,4.8,5.5.67,0,1.2-.07,1.6-.2.73-.27,1.33-.4,1.8-.4,1.13,0,1.7,1.87,1.7,5.6v33.33c0,3.74-.57,5.6-1.7,5.6-.4,0-.95-.12-1.65-.35-.7-.23-1.25-.35-1.65-.35-3.27,0-4.9,1.87-4.9,5.61,0,1.78.47,3.23,1.37,4.41.11.15.21.31.33.45,1.13,1.23,2.6,1.85,4.4,1.85.73,0,2.5-.17,5.3-.5,1.67-.2,3.24-.3,4.7-.3,1.73,0,3.37.07,4.9.2,5,.4,7.54.6,7.61.6,1.1,0,2.03-.19,2.82-.53,2.11-.92,3.18-3.03,3.18-6.37s-1.47-5.2-4.4-5.2Z"/><path d="M476.06,78.29c-.14,0-.29,0-.45.01l1.18.07c-.23-.05-.47-.08-.73-.08Z"/><path class="cls-2" d="M468.45,78.99c-1.14,0-2.84-.13-5.1-.4-1.74-.2-2.87-.3-3.4-.3-1.94,0-3.47.6-4.6,1.8-1.14,1.2-1.7,2.84-1.7,4.9,0,3.67,1.6,5.5,4.8,5.5.67,0,1.2-.07,1.6-.2.73-.27,1.33-.4,1.8-.4,1.13,0,1.7,1.87,1.7,5.6v33.33c0,3.74-.57,5.6-1.7,5.6-.4,0-.95-.12-1.65-.35-.7-.23-1.25-.35-1.65-.35-3.27,0-4.9,1.87-4.9,5.61,0,2,.57,3.62,1.7,4.85,1.13,1.23,2.6,1.85,4.4,1.85.73,0,2.5-.17,5.3-.5,1.67-.2,3.24-.3,4.7-.3,1.73,0,3.37.07,4.9.2,5,.4,7.54.6,7.61.6,4,0,6.01-2.3,6.01-6.9,0-3.47-1.47-5.2-4.4-5.2-.67,0-1.2.07-1.6.2-.4.13-.87.2-1.4.2-1.34,0-2-1.67-2-5v-47.34c0-2.12-.69-3.32-2.07-3.62l-1.18-.07c-.82.03-1.86.12-3.16.29-1.14.27-2.47.4-4,.4Z"/><path class="cls-2" d="M517.59,93.9c-8.07,0-14.35,2.35-18.81,7.06-4.47,4.7-6.71,11.26-6.71,19.67s2.25,15.05,6.76,19.71c4.5,4.67,10.89,7.01,19.17,7.01s14.13-2.4,18.56-7.21c4.44-4.81,6.66-11.48,6.66-20.02s-2.29-14.54-6.86-19.22c-4.57-4.67-10.83-7.01-18.77-7.01ZM517.79,135.03c-3.07,0-5.45-1.27-7.16-3.8-1.7-2.54-2.55-6.07-2.55-10.61s.85-7.99,2.55-10.56c1.7-2.57,4.02-3.85,6.96-3.85,6.34,0,9.51,4.8,9.51,14.41s-3.1,14.41-9.31,14.41Z"/><path class="cls-2" d="M634.48,97c-.78-.83-1.74-1.35-2.88-1.57-.42-.08-.86-.13-1.33-.13-1.07,0-2.67.13-4.8.4-2.14.27-3.74.4-4.8.4-1.14,0-2.8-.13-5-.4-2.2-.27-3.87-.4-5-.4-3.8,0-5.7,1.97-5.7,5.91,0,3.67,1.63,5.54,4.9,5.6,1.6,0,2.4.5,2.4,1.5,0,.4-.07.87-.2,1.4l-5.3,22.42-5.7-28.32c-.73-3.73-1.72-6.09-2.95-7.06-1.24-.97-3.82-1.45-7.76-1.45-3.47,0-5.86.49-7.16,1.45-1.3.97-2.29,2.92-2.95,5.86l-6.41,29.52-4.3-21.42c-.13-.67-.2-1.13-.2-1.4v-.9c0-.67.15-1.08.45-1.25.3-.16,1.08-.32,2.35-.45,2.6-.2,3.9-2,3.9-5.4,0-4-1.8-6.01-5.4-6.01-1.14,0-2.87.13-5.2.4-2.34.27-4.07.4-5.2.4-1.07,0-2.65-.13-4.75-.4s-3.69-.4-4.75-.4c-3.94,0-5.91,2.17-5.91,6.51,0,3.87,1.4,5.8,4.2,5.8.27,0,.68-.05,1.25-.15.57-.1.98-.15,1.25-.15,1.33,0,2.23,1.04,2.7,3.1l8.01,30.43c.93,3.4,2.44,5.1,4.5,5.1.73,0,1.8-.1,3.2-.3,1.4-.2,2.47-.3,3.2-.3.93,0,2.03.1,3.3.3,1.27.2,2.27.3,3,.3,1.4,0,2.38-.48,2.95-1.45.57-.97,1.28-3.35,2.15-7.16l5.8-25.52,4.9,26.32c1,5.2,2.74,7.81,5.2,7.81.6,0,1.53-.1,2.8-.3,1.27-.2,2.23-.3,2.9-.3s1.67.1,3,.3c1.33.2,2.33.3,3,.3,2.2,0,3.97-2.13,5.3-6.41l8.31-26.02c.6-1.8.9-2.73.9-2.8.67-2.4,1.43-3.6,2.3-3.6.07,0,.57.07,1.5.2.11.04.27.06.46.08.16.01.33.02.54.02,1.33,0,2.44-.55,3.3-1.65.87-1.1,1.3-2.52,1.3-4.25,0-1.87-.54-3.37-1.6-4.5Z"/><text class="cls-1" transform="translate(465.92 185.26)"><tspan class="cls-5" x="0" y="0">Y</tspan><tspan class="cls-7" x="19.62" y="0">ou there?</tspan></text><path class="cls-4" d="M115.1,183.42c-.5-.65-4.13-2.68-2.77-1.8,2.93,2.05,5.13,5.53,6.49,8.48,3.65,8.41,3.46,18.76.1,25.33-3.44,5.41-8.35,8.34-14.71,10.26-3.48,1.17-7.28.93-10.41-.02,0-2.68-.56-5.33-2.16-7.52-1.92-3-6.9-4.32-9.49-1.48-3.2,4.44-.84,8.47,2.2,11.4.77.65,1.58,1.21,2.4,1.72-.45,1.33-1.1,2.75-2.03,4.39-.16.26-.4.59-.59.86-6.19,7.41-14.01,8.01-18.97,6.2-1.75-.79-3.24-1.73-4.51-2.74,1.1-1.11,2.1-2.34,2.88-3.82,2.37-4.38,1.45-11.26-3.81-12.95-4.86-1.82-9.41,2.99-9.66,7.64-.23,3.28.68,6.33,2.28,9.02-5.13,2.18-12.3,2.61-19.49-.38-7.28-2.57-18.19-14.28-16.34-25.84-2.67,13.28,7.32,27.14,19.95,30.89,5.99,1.76,13.17,1.77,18.93-.85,2.81,2.79,6.39,4.9,10.1,5.91,7.48,1.5,11.28.17,18.1-3.55,4.42-2.9,7.51-7.37,9.09-12.37,9.97,2.32,21.54-2.65,27.77-10.69,8.24-10.67,4.57-29.58-5.35-38.08ZM56.97,227.39c.11-.12.22-.24.34-.35.06-.03.16-.09.27-.16.06-.02.11-.03.17-.04.22,0,.37.01.5.02.1.03.18.06.25.08.04.02.08.04.16.08.16.14.3.29.42.42.22.32.43.65.6,1,.47,2.35-.45,4.65-2.29,6.58-1.7-2.65-1.95-5.43-.42-7.62Z"/><path class="cls-2" d="M132.53,153.89s7.69,4.91,1.17,19.54c-6.52,14.64-11.76,11.55-14.41,10.68,0,0-.49-7.45-6.05-8.12-5.56-.67-15.3,15.41-9.04,24.48,6.26,9.07,42.23,10.62,49.49-28.78,7.26-39.4-25.08-50.72-34.24-40.42-9.16,10.3-2.77,31.92,13.08,22.62Z"/><path class="cls-6" d="M787.88,103c-8.87-2.99-15.72-11.81-16.18-21.18-.09-1.8,1.22-3.4,3.01-3.62,25.83-3.17,52.62,2.24,75.28,15.01,2.72,1.53,2.13,5.57-.88,6.37-5.08,1.34-10.07,4.29-14.45,7.28-13.55,9.25-26.44,19.48-38.53,30.58-1.53,1.4-3.95,1.2-5.16-.49-5.96-8.38-6.43-20.39-1.3-28.83,1.16-1.91.33-4.4-1.79-5.12Z"/><path class="cls-4" d="M775.47,98.02c8.36-7.64,87.32-3.08,68.97-1.08-50.75,5.53-58.12,22.91-58.24,22.67l-11.73-18.15c-.52-1.03.15-2.66,1-3.43Z"/><path class="cls-2" d="M774.87,113.84c-1.54.72-3.03,1.54-4.5,2.4-.02.01-.05,0-.06-.02-.01-.02,0-.05.02-.06,0,0,0,0,0,0,1.48-.83,2.99-1.63,4.55-2.32Z"/><path class="cls-2" d="M767.73,117.87c-2.88,1.88-5.63,3.97-8.16,6.3-.06.06-.16.06-.22,0-.06-.06-.06-.16,0-.22,0,0,0,0,0,0,2.58-2.3,5.37-4.35,8.3-6.19.03-.02.08-.01.1.02.02.03.01.08-.02.1Z"/><path class="cls-2" d="M757.37,126.34c-2.36,2.49-4.46,5.24-6.04,8.27-.07.13-.23.19-.37.12-.13-.07-.19-.23-.12-.37,0,0,0,0,0,0,1.66-3.06,3.83-5.81,6.26-8.27.07-.07.19-.07.26,0,.07.07.07.19,0,.26Z"/><path class="cls-2" d="M750.06,137.41c-1.25,3.17-1.85,6.59-1.69,9.98,0,.21-.15.39-.37.4-.21,0-.39-.15-.4-.37,0,0,0,0,0,0-.11-3.5.58-7.01,1.91-10.23.06-.15.24-.23.39-.16.15.06.22.23.17.39Z"/><path class="cls-2" d="M748.68,150.42c.56,3.35,1.78,6.57,3.4,9.57.12.22.04.49-.18.61-.22.12-.49.04-.61-.18h0c-1.63-3.08-2.86-6.41-3.4-9.87-.03-.22.12-.42.33-.46.22-.03.42.11.46.33Z"/><path class="cls-2" d="M753.65,162.64c1.84,2.88,3.97,5.57,6.48,7.86.21.19.23.52.04.73-.19.21-.52.23-.73.04h0c-2.57-2.39-4.73-5.17-6.57-8.12-.14-.22-.07-.5.15-.64.22-.14.5-.07.64.14Z"/><path class="cls-2" d="M762.48,172.42c2.73,1.99,5.86,3.45,9.16,3.99.32.05.53.35.48.66-.05.32-.35.53-.66.48h0c-3.51-.61-6.79-2.18-9.6-4.28-.23-.17-.28-.51-.11-.74.17-.23.5-.28.74-.11Z"/><path class="cls-2" d="M774.64,176.64c3.32-.04,6.67-1.09,9.18-3.2h0c.27-.23.68-.2.91.07s.19.68-.08.91h0c-2.82,2.32-6.44,3.4-10,3.41-.33,0-.59-.26-.6-.59,0-.33.26-.59.59-.6Z"/><path class="cls-2" d="M785.76,171.27c.44-.67.78-1.4.98-2.16.21-.76.24-1.53.22-2.38-.02-1.66-.29-3.32-.75-4.92-.1-.35.1-.72.45-.83.35-.1.72.1.83.45h0c.49,1.71.77,3.49.79,5.28.02.87-.02,1.84-.28,2.74-.25.91-.65,1.76-1.16,2.53-.2.3-.6.38-.9.19-.3-.2-.38-.6-.19-.9Z"/><path class="cls-2" d="M785.16,159c-1.39-3.05-3.47-5.77-5.93-8.07-.28-.26-.29-.7-.03-.97.26-.28.7-.29.97-.03h0c2.56,2.42,4.74,5.28,6.21,8.52.15.34,0,.74-.33.89-.34.15-.74,0-.89-.33Z"/><path class="cls-2" d="M776.92,148.96c-2.67-2.06-5.66-3.71-8.83-4.89-.37-.14-.55-.54-.42-.91s.54-.55.91-.42h0c3.29,1.24,6.4,2.96,9.18,5.12.3.23.36.67.12.97-.23.3-.67.36-.97.12Z"/><path class="cls-2" d="M765.2,143.15c-3.25-.88-6.65-1.25-10-.98-.4.03-.75-.27-.79-.67-.03-.4.27-.75.67-.79h0c3.53-.27,7.09.13,10.48,1.06.38.1.6.5.5.88s-.49.61-.88.5Z"/><path class="cls-2" d="M752.22,142.58c-3.28.65-6.42,1.99-9.14,3.94-.34.24-.81.17-1.05-.17-.24-.34-.17-.81.17-1.05h0c2.89-2.07,6.24-3.49,9.72-4.16.4-.08.79.18.86.58.08.4-.18.79-.58.86Z"/><path class="cls-2" d="M740.76,148.42c-2.46,2.28-4.44,5.04-5.99,8.04-.19.37-.65.52-1.02.32-.37-.19-.52-.65-.33-1.02,1.6-3.13,3.7-6.05,6.31-8.45.31-.28.79-.26,1.07.05.28.31.26.78-.04,1.07Z"/><path class="cls-2" d="M733.49,159.21c-1.3,3.12-2.21,6.42-2.84,9.76h0c-.08.41-.46.67-.86.59-.4-.08-.66-.46-.59-.86.64-3.43,1.56-6.82,2.9-10.07.16-.38.6-.57.98-.41s.57.6.41.98h0Z"/><path class="cls-2" d="M730.24,171.97c-.3,3.36-.06,6.76.63,10.07.08.39-.17.77-.55.85-.39.08-.77-.17-.85-.55-.73-3.43-.99-6.98-.69-10.49.03-.4.39-.7.79-.67.4.03.7.39.67.79h0Z"/><path class="cls-2" d="M731.61,184.99c.95,3.25,2.3,6.39,3.92,9.39.18.34.06.76-.28.94-.34.18-.76.06-.94-.28-1.67-3.06-3.07-6.29-4.07-9.65-.11-.38.1-.77.48-.88.38-.11.77.1.88.48h0Z"/><path class="cls-2" d="M737.06,197.03c1.78,2.91,3.79,5.68,5.97,8.32.24.29.2.71-.09.95-.29.24-.71.2-.95-.09-2.22-2.67-4.28-5.49-6.1-8.46-.2-.32-.1-.75.23-.95.32-.2.75-.1.95.23h0Z"/><path class="cls-2" d="M745.02,207.69c2.27,2.56,4.67,5.01,7.18,7.34.26.24.28.66.03.92-.25.26-.66.28-.92.03-2.54-2.35-4.99-4.82-7.3-7.41-.25-.28-.22-.7.06-.94.28-.25.7-.22.94.06h0Z"/><path class="cls-2" d="M754.49,217.11l7.94,6.55.03.03c.25.21.29.59.08.84-.21.25-.58.29-.83.08l-8.08-6.53c-.28-.22-.32-.63-.1-.91s.63-.32.91-.1h0s.04.04.04.04Z"/><path class="cls-2" d="M764.9,225.51l8.48,5.85.03.02c.24.17.3.5.14.74-.17.24-.49.3-.73.14l-8.59-5.8c-.27-.18-.34-.54-.16-.81.18-.27.54-.34.81-.16h0s.03.02.03.02Z"/><path class="cls-2" d="M776,233.01l8.89,5.22h.02c.22.14.3.43.17.65-.13.22-.41.3-.63.17l-8.99-5.16c-.25-.14-.33-.46-.19-.71.14-.25.46-.33.71-.19h0s.02.02.02.02Z"/><path class="cls-2" d="M787.61,239.71l9.23,4.62h.02c.2.11.28.35.18.55-.1.2-.34.28-.54.18l-9.31-4.55c-.22-.11-.32-.38-.21-.6.11-.22.38-.32.6-.21h0s.02.01.02.01Z"/><path class="cls-2" d="M799.65,245.63l9.5,4.04h.01c.15.07.22.25.16.4-.06.15-.24.22-.39.16l-9.6-3.9c-.2-.08-.29-.31-.21-.5s.31-.29.5-.21c0,0,0,0,0,0h.02Z"/><path class="cls-2" d="M812.04,250.79l9.76,3.36h.01c.1.04.15.14.12.24-.03.1-.14.15-.23.12l-9.85-3.2c-.14-.05-.22-.2-.18-.35.05-.14.2-.22.35-.18h0s.02,0,.02,0Z"/><path class="cls-2" d="M824.77,255.04c3.31.96,6.65,1.8,10.02,2.5.04,0,.06.05.05.08,0,.04-.04.06-.08.05-3.39-.64-6.75-1.43-10.08-2.34-.08-.02-.14-.11-.11-.2.02-.08.11-.14.2-.11,0,0,0,0,0,0Z"/><path class="cls-2" d="M837.9,258.14l5.05.76-5.06-.68s-.04-.03-.04-.05c0-.02.03-.04.05-.04,0,0,0,0,0,0Z"/><path class="cls-4" d="M702.77,199.63c-1.16,6.26-5.78,11.77-11.74,14,5.75.04,11.12,10.7,11.92,16.4.27-2.65,4.29-10.94,4.29-10.94,0,0,3.29-5.32,5.83-6.14-5.98-2.67-9.11-6.69-10.3-13.32Z"/><path class="cls-4" d="M880.38,47.89c-.8,4.33-4,8.14-8.13,9.69,3.98.03,7.69,7.41,8.25,11.35.19-1.84,2.97-7.57,2.97-7.57,0,0,2.28-3.68,4.04-4.25-4.14-1.85-6.31-4.63-7.12-9.22Z"/><path class="cls-4" d="M874.62,17.74c-.59,3.2-2.95,6.02-6,7.16,2.94.02,5.68,5.47,6.09,8.38.14-1.36,2.19-5.59,2.19-5.59,0,0,1.68-2.72,2.98-3.14-3.06-1.36-4.66-3.42-5.26-6.81Z"/><path class="cls-4" d="M729.38,219.25c-.59,3.2-2.95,6.02-6,7.16,2.94.02,5.68,5.47,6.09,8.38.14-1.36,2.19-5.59,2.19-5.59,0,0,1.68-2.72,2.98-3.14-3.06-1.36-4.66-3.42-5.26-6.81Z"/><path class="cls-4" d="M56.67,153.5c-1.16,6.26-5.78,11.77-11.74,14,5.75.04,11.12,10.7,11.92,16.4.27-2.65,4.29-10.94,4.29-10.94,0,0,3.29-5.32,5.83-6.14-5.98-2.67-9.11-6.69-10.3-13.32Z"/><path class="cls-4" d="M34.58,122.94c-.59,3.2-2.95,6.02-6,7.16,2.94.02,5.68,5.47,6.09,8.38.14-1.36,2.19-5.59,2.19-5.59,0,0,1.68-2.72,2.98-3.14-3.06-1.36-4.66-3.42-5.26-6.81Z"/><path class="cls-4" d="M900.64,30.76c-.59,3.2-2.95,6.02-6,7.16,2.94.02,5.68,5.47,6.09,8.38.14-1.36,2.19-5.59,2.19-5.59,0,0,1.68-2.72,2.98-3.14-3.06-1.36-4.66-3.42-5.26-6.81Z"/></svg>